<svg id="Layer_1" data-name="Layer 1" xmlns="http://www.w3.org/2000/svg" viewBox="0 0 504.28 502.04"><defs><style>.cls-1,.cls-4,.cls-7{fill:#1a6565;}.cls-1,.cls-2,.cls-5,.cls-6,.cls-7{stroke:#1a6565;stroke-miterlimit:10;}.cls-1,.cls-7{stroke-width:2px;}.cls-2,.cls-5{fill:#fff;}.cls-2,.cls-6{stroke-width:7px;}.cls-3{fill:#27a8ad;}.cls-5{stroke-width:6px;}.cls-6{fill:none;}.cls-7{font-size:44.76px;font-family:MyriadPro-Regular, Myriad Pro;}</style></defs><path class="cls-1" d="M608.93,350.23c-2.49-3.64-7.12-11.28-12.48-15.57,4.62-6,7.83-13.25,10.11-20.25,3.55-10.87,4.3-22.21,0-33.51-4.73-12.35-15.2-21.18-26.26-27.79-3.9-2.33-11.64-7.56-18.46-9.05,2.2-7.26,2.58-15.25,2.2-22.65-.6-11.42-4-22.27-12.08-31.26-8.85-9.82-21.79-14.3-34.49-16.5-4.43-.77-13.38-2.83-20.25-1.85A75,75,0,0,0,491,156.13C485.67,146,478.1,137.51,467,132.69c-12.13-5.27-25.76-4-38.23-.71a107.82,107.82,0,0,0-14.28,4.22c-2.41-2.45-4.77-4.54-6.3-6-9.33-8.89-20.64-16.62-33.79-17.88a44.53,44.53,0,0,0-13.27.7c-10.5,1.83-19.73,7.69-27.65,14.71q-1.62,1.41-3.14,2.91l-.12.11c-1.44,1.39-3.62,3.36-5.88,5.65-5.29-2.19-11.36-3.44-14.69-4.28-12.49-3.18-26.13-4.37-38.22,1-11.07,4.9-18.58,13.43-23.79,23.61a75.69,75.69,0,0,0-6.12,15.71c-6.88-.92-15.82,1.2-20.24,2-12.68,2.29-25.59,6.86-34.37,16.74-8,9-11.34,19.92-11.86,31.34-.33,7.4.11,15.39,2.36,22.63-6.81,1.54-14.52,6.83-18.4,9.19-11,6.69-21.42,15.59-26.07,28-4.25,11.33-3.42,22.66.2,33.51,2.33,7,5.59,14.25,10.25,20.18-5.33,4.33-9.91,12-12.37,15.65-7.2,10.69-12.92,23.13-12,36.32.88,12.07,6.38,22,14.21,30.35,5.91,6.3,13.14,12.4,21.3,15.64-4.52,5.77-6.13,16.75-7.16,21.73-2.6,12.62-3.17,26.31,2.72,38.14,5.4,10.83,14.26,17.95,24.67,22.69,7.08,3.22,15.09,5.9,23,6.33.62,5.94,2.68,12.23,3.64,15.71,3.41,12.43,9.11,24.88,19.74,32.75,9.72,7.2,20.85,9.51,32.28,9,7.91-.35,16.41-1.64,23.76-5a109.34,109.34,0,0,0,8.52,12.11c7.73,10.31,17.61,19.79,30.38,23.21,11.69,3.13,22.89,1.2,33.33-3.46,7.64-3.41,15.52-8,21.22-14.36,5.77,6.42,13.79,11.08,21.56,14.49,10.48,4.58,21.69,6.44,33.36,3.23,12.75-3.51,22.56-13.07,30.22-23.43a108.34,108.34,0,0,0,8.43-12.17c7.38,3.3,15.89,4.53,23.8,4.83,11.43.42,22.54-2,32.22-9.24,10.56-7.94,16.18-20.43,19.51-32.89.93-3.48,3-9.79,3.52-15.73,7.94-.49,15.93-3.22,23-6.5,10.37-4.81,19.19-12,24.51-22.86,5.81-11.87,5.14-25.55,2.45-38.15-1.06-5-2.75-15.95-7.31-21.68,8.14-3.3,15.32-9.45,21.19-15.79,7.77-8.39,13.2-18.38,14-30.45C622,373.27,616.21,360.87,608.93,350.23Zm-29.12,7-3.59,26.56-3.59,26.55c-.6,4.41-1.29,8.82-1.54,13.27-.17,3-.62,7,1.57,9.38a3.89,3.89,0,0,0,.36.34c-.52.73-1,1.47-1.39,2.14-2.9,4.63-5.21,9.61-7.94,14.34L550.28,473l-13.4,23.21c-2.23,3.85-4.55,7.67-6.46,11.68-.46,1-1,2-1.47,3.16-4.61,2.79-8.89,6.13-13.42,9.07l-22.48,14.58-22.48,14.59c-3.72,2.42-7.53,4.77-11.06,7.48L457.87,558c-.76.1-1.49.22-2.16.33-5.39.9-10.65,2.46-16,3.55l-26.26,5.32-26.26,5.32c-4.36.88-8.76,1.67-13,2.89-.91.26-1.95.53-3,.87-1.28-.47-2.62-.8-3.78-1.13-4.28-1.19-8.69-1.95-13.05-2.8L328,567.21l-26.3-5.14c-5.36-1-10.64-2.57-16-3.43-.66-.11-1.39-.22-2.15-.32l-1.66-1.24c-3.54-2.68-7.37-5-11.11-7.4l-22.58-14.43-22.58-14.43c-4.55-2.9-8.85-6.21-13.49-9-.46-1.12-1-2.19-1.48-3.15-1.95-4-4.29-7.8-6.54-11.64L190.53,474,177,450.85c-2.76-4.71-5.11-9.68-8-14.29-.42-.66-.88-1.4-1.41-2.13a3.89,3.89,0,0,0,.36-.34c2.18-2.38,1.69-6.44,1.51-9.39-.28-4.44-1-8.86-1.64-13.26L164,384.92l-3.78-26.53c-.66-4.67-1-9.39-1.65-14.05,2.56-1.48,3.72-5,4.72-7.61,1.6-4.15,2.79-8.47,4.06-12.72,0-.08,7.68-25.68,7.68-25.68l7.67-25.67c1.44-4.82,3.27-9.52,4.64-14.36a5,5,0,0,0,.55,0c3.22-.1,5.79-3.27,7.78-5.47,3-3.3,5.65-6.89,8.36-10.41l16.39-21.2L236.77,200c1.82-2.37,3.76-4.65,5.67-7a5.17,5.17,0,0,0,2,1.53c3,1.25,6.63-.58,9.35-1.75,4.08-1.76,8-3.93,11.92-6l23.71-12.5,23.7-12.49c2.16-1.14,4.37-2.2,6.57-3.27a21.85,21.85,0,0,0,5.92.56c5.46,0,10.91-.67,16.37-.86l26.78-.91,5.1-.18,22.78.62c5.46.15,10.92.78,16.38.74a25.35,25.35,0,0,0,5.16-.4c2.46,1.17,4.93,2.33,7.34,3.58l23.8,12.33L473.1,186.4c3.94,2,7.86,4.19,12,5.93,2.73,1.15,6.4,2.95,9.36,1.68a5.09,5.09,0,0,0,2-1.54c1.92,2.29,3.88,4.56,5.72,6.91l16.54,21.09,16.54,21.09c2.74,3.49,5.42,7.07,8.43,10.35,2,2.18,4.6,5.34,7.82,5.41a5,5,0,0,0,.55,0c1.4,4.83,3.26,9.52,4.74,14.33l7.85,25.62s7.83,25.54,7.86,25.62c1.3,4.24,2.51,8.55,4.15,12.69,1,2.57,2.2,6.11,4.77,7.58C580.72,347.8,580.45,352.53,579.81,357.19Z" transform="translate(-117.95 -111.11)"/><circle class="cls-2" cx="250.55" cy="251.39" r="218"/><polygon class="cls-3" points="410.05 224.76 404.09 184.07 291.92 206.56 355.55 123.96 322.75 100.23 265.81 191.12 271.11 89.35 270.12 89.35 270.13 88.89 229.99 88.89 235.28 190.66 178.35 99.77 145.55 123.5 209.17 206.1 97.01 183.61 91.05 224.3 199.84 234.99 92.73 299.15 114.51 333.71 230.28 247.85 225.17 256 238.58 265.7 238.95 274.27 261.49 274.27 261.51 273.81 262.15 273.81 262.52 265.24 275.93 255.54 271.89 249.1 386.59 334.17 408.37 299.61 301.26 235.45 410.05 224.76"/><path class="cls-4" d="M371,401c-11.93,0-23.86,0-35.79,0-1.65,0-2.21-.41-2.21-2.27.06-23-.13-46.08.09-69.11.2-20,13.95-36.21,32.08-39.22,20-3.33,39.34,11,42.94,32a52,52,0,0,1,.83,8.81q0,33.65,0,67.29c0,2-.49,2.55-2.4,2.54C394.74,400.91,382.88,401,371,401Z" transform="translate(-117.95 -111.11)"/><path class="cls-4" d="M306,362.33c0-8.27-.06-16.54,0-24.8.14-14,8.51-25.68,20.74-29a21.6,21.6,0,0,1,12,.09c1.23.37,1.36.82.84,2-3.45,7.8-4.53,16.09-4.46,24.72.13,17.52,0,35,.08,52.56,0,2.28-.39,3.1-2.62,3.06-8.17-.16-16.34-.11-24.51,0-1.66,0-2.12-.55-2.1-2.37C306.08,379.85,306,371.09,306,362.33Z" transform="translate(-117.95 -111.11)"/><path class="cls-4" d="M407.37,358.93q0-13.26,0-26.53a54.36,54.36,0,0,0-4-21.08c-.79-1.89-.43-2.44,1.21-2.89,13.63-3.74,28.24,8.23,30,24.51A85.58,85.58,0,0,1,435,342c0,15.47,0,30.94.05,46.41,0,2.08-.53,2.6-2.24,2.58q-11.6-.15-23.19,0c-1.71,0-2.26-.5-2.24-2.58C407.42,378.58,407.37,368.75,407.37,358.93Z" transform="translate(-117.95 -111.11)"/><path class="cls-4" d="M371,242c11.55,0,20.91,11.4,20.8,25.48-.1,13.85-9,25.49-20.91,25.43-12.22-.06-20.83-12.11-20.82-25.79C350.12,253.24,359.53,242,371,242Z" transform="translate(-117.95 -111.11)"/><path class="cls-4" d="M308.7,358.41c0,7-.08,13.93.05,20.89,0,2.2-.62,2.74-2.57,2.7-5.7-.13-11.41-.09-17.11,0-1.49,0-2.06-.42-2.05-2.13.06-13.47-.13-26.94.09-40.41.18-11.72,9.46-21.54,20.31-22l.76,0c5.42.06,5.7.56,3.62,5.71a41.27,41.27,0,0,0-3.09,15.49Q308.7,348.51,308.7,358.41Z" transform="translate(-117.95 -111.11)"/><path class="cls-4" d="M433.62,356.82c0-5.78-.07-11.57,0-17.35a39.86,39.86,0,0,0-4.09-18.7c-1.07-2.12-.52-2.57,1.47-2.93,12.11-2.2,23.7,7.94,23.86,21.22.15,12.88,0,25.77.07,38.65,0,1.69-.4,2.31-2.07,2.29-5.69-.1-11.38-.11-17.07,0-1.76,0-2.24-.59-2.22-2.4C433.67,370.67,433.62,363.75,433.62,356.82Z" transform="translate(-117.95 -111.11)"/><path class="cls-4" d="M425.08,294c-.05,9.52-6.44,17.12-14.43,17-7.36-.14-13.79-7.83-13.66-17.45.12-8.56,5.61-17,14.05-17S425.16,284.46,425.08,294Z" transform="translate(-117.95 -111.11)"/><path class="cls-4" d="M344.9,293.9c.26,8.91-6.1,17.09-14.13,17-7.74-.05-13.93-7.91-13.91-17.64,0-8.22,5.31-16.73,14-16.81C339.29,276.42,345.14,284.81,344.9,293.9Z" transform="translate(-117.95 -111.11)"/><path class="cls-4" d="M302.51,320.59c-5.4,0-9.23-4.88-9.19-11.64,0-6.49,4.11-11.28,9.56-11.23,5.25,0,9.1,5.12,9.17,11.78C312.11,314.73,307.88,321.2,302.51,320.59Z" transform="translate(-117.95 -111.11)"/><path class="cls-4" d="M448.63,309.15c.54,5.78-4.49,11.83-9.41,11.51-5.24-.33-9.29-5-9.29-11.47s4.07-11.49,9.44-11.47S448.63,302.69,448.63,309.15Z" transform="translate(-117.95 -111.11)"/><path class="cls-4" d="M368,354.07c-18.22,0-36.43.05-54.64-.05-2.52,0-3.38.63-3.37,3.47.09,35.25-.2,70.51.14,105.76-2.17,62.75,21.3,55.41,49,60,30.54,5.08,69.87,7.73,65.54-48.94a79.08,79.08,0,0,0,1.27-13.48c0-34.32-.05-68.64.06-103,0-3.08-.75-3.91-3.66-3.89C404.24,354.14,386.14,354.07,368,354.07Z" transform="translate(-117.95 -111.11)"/><path class="cls-5" d="M397,522a193.36,193.36,0,0,1-23,2c-2.94,0-1-14.72-.36-18,1.54-8.06,2.84-16.17,4.35-24.24a30.28,30.28,0,0,0-.1-9.36,98.29,98.29,0,0,1,.73-27.83c1.36-8.17,6-14.67,11.67-20.47A69.48,69.48,0,0,1,405,412.42c9.91-5.71,17.37-13.73,23.42-23.27a63.33,63.33,0,0,1,9.82-12.08,36,36,0,0,1,5.61-4.56c3.31-2.06,6.87-3.17,10.48-.53,2.9,2.13,3.59,5.48,1.95,10.22-2.61,7.57-7.67,13.64-12.42,19.89-2.62,3.46-5.75,6.55-7.67,10.52-.63,1.31-1.68,2.76-.17,3.9,1.7,1.29,2.58-.55,3.5-1.51,12-12.47,22.7-26.05,34-39.09a10.09,10.09,0,0,0,2.05-5.33c1.46-9.8,3.16-19.56,7.24-28.7a36,36,0,0,1,6.56-10.36,14.18,14.18,0,0,1,6-3.91c4-1.27,5.94.07,5.59,4.22-.77,9.28-1.74,18.54-2.63,27.8a59,59,0,0,0-.6,6.87c.21,11.55-6.06,20.92-10.33,30.95-2.31,5.45-4.81,10.83-6.4,16.55-2.36,8.49-8.65,14.1-14.56,19.95-6.09,6.05-12.44,11.84-18.61,17.8-13.84,13.37-22.63,29.11-22.81,48.86,0,.6,0,1.21,0,1.81C425.41,510,430,512,421,515,413,518,403,521,397,522Z" transform="translate(-117.95 -111.11)"/><path class="cls-2" d="M340.5,521.5c-8-1-17-4-23-6-2.76,0-2-4.22-1.77-7.21,2-22.1-7.12-39.69-22.55-54.6-8.7-8.4-17.74-16.45-25.91-25.4a33.14,33.14,0,0,1-7.46-13.09A148.4,148.4,0,0,0,250,391.47c-3.53-7.1-6.09-14.3-6.6-22.36-.74-11.7-2.2-23.35-3.25-35-.39-4.42,1.39-5.73,5.66-4.4,4.59,1.44,7.34,4.94,9.68,8.83a61.28,61.28,0,0,1,8.5,25.6c.9,8.93,4.74,15.74,10.64,22.23,9.11,10,17.46,20.71,26.84,30.49,1,1,1.89,3.13,3.76,1.62,1.64-1.33.28-2.94-.45-4.22-3.31-5.81-8.18-10.46-11.93-16-3.54-5.17-7.43-10.18-8.56-16.6-1.17-6.59,3.84-10.82,10.15-8.57a22.31,22.31,0,0,1,7.77,5.23,84.26,84.26,0,0,1,12.21,15.25A62.86,62.86,0,0,0,335,413.68a85.55,85.55,0,0,1,14.41,10.95c9,8.41,14.11,18.53,14.24,31,.08,7,.49,14-.61,21-1,6.61,1.66,12.86,2.44,19.31.49,4.07,1.22,8.13,2.09,12.14.65,3,1.73,16.42-1.05,16.4A137.82,137.82,0,0,1,340.5,521.5Z" transform="translate(-117.95 -111.11)"/><circle class="cls-6" cx="250.5" cy="249.35" r="163.98"/><text class="cls-7" transform="translate(239.86 423.83) rotate(-170.79)">M</text><text class="cls-7" transform="matrix(-0.94, -0.33, 0.33, -0.94, 197.39, 415.14)">I</text><text class="cls-7" transform="matrix(-0.88, -0.48, 0.48, -0.88, 180.06, 409.19)">N</text><text class="cls-7" transform="matrix(-0.76, -0.65, 0.65, -0.76, 148.24, 390.9)">A</text><text class="cls-7" transform="translate(122.32 367.68) rotate(-129.36)">L</text><text class="cls-7" transform="matrix(-0.52, -0.85, 0.85, -0.52, 104.71, 344.84)">I</text><text class="cls-7" transform="translate(94.99 329.32) rotate(-112.47)">N</text><text class="cls-7" transform="translate(82.14 294.63) rotate(-103.49)"> </text><text class="cls-7" transform="translate(78.22 277.82) rotate(-95.76)">F</text><text class="cls-7" transform="translate(75.9 248.6) rotate(-86.2)">E</text><text class="cls-7" transform="matrix(0.25, -0.97, 0.97, 0.25, 78.16, 219.32)">D</text><text class="cls-7" transform="translate(88.67 183.68) rotate(-64.22)">E</text><text class="cls-7" transform="translate(102 157.39) rotate(-54.17)">R</text><text class="cls-7" transform="translate(120.99 132.05) rotate(-43.27)">A</text><text class="cls-7" transform="translate(144.29 110.88) rotate(-33.79)">T</text><text class="cls-7" transform="translate(169.66 95.02) rotate(-25.82)">I</text><text class="cls-7" transform="translate(186.03 86.87) rotate(-16.44)">O</text><text class="cls-7" transform="translate(222.76 76.92) rotate(-4.12)">N</text><text class="cls-7" transform="translate(259.75 75.61) rotate(4.67)"> </text><text class="cls-7" transform="translate(276.83 76.75) rotate(13.81)">O</text><text class="cls-7" transform="translate(313.56 86.97) rotate(24.96)">F</text><text class="cls-7" transform="matrix(0.84, 0.54, -0.54, 0.84, 339.9, 100.26)"> </text><text class="cls-7" transform="matrix(0.76, 0.65, -0.65, 0.76, 354.37, 109.67)">S</text><text class="cls-7" transform="translate(376.46 129.3) rotate(50.06)">E</text><text class="cls-7" transform="matrix(0.49, 0.87, -0.87, 0.49, 395.08, 152.08)">N</text><text class="cls-7" transform="translate(411.85 185.02) rotate(70.08)">I</text><text class="cls-7" transform="matrix(0.18, 0.98, -0.98, 0.18, 418.27, 202.16)">O</text><text class="cls-7" transform="translate(424.21 239.8) rotate(90.93)">R</text><text class="cls-7" transform="matrix(-0.15, 0.99, -0.99, -0.15, 422.69, 271.54)"> </text><text class="cls-7" transform="translate(420.09 288.52) rotate(107.24)">C</text><text class="cls-7" transform="translate(409.05 320.21) rotate(115.85)">I</text><text class="cls-7" transform="matrix(-0.56, 0.83, -0.83, -0.56, 400.9, 336.72)">T</text><text class="cls-7" transform="matrix(-0.67, 0.75, -0.75, -0.67, 383.46, 361.07)">I</text><text class="cls-7" transform="translate(371.19 374.75) rotate(140.06)">Z</text><text class="cls-7" transform="translate(346.02 394.82) rotate(150.19)">E</text><text class="cls-7" transform="matrix(-0.95, 0.32, -0.32, -0.95, 320.34, 409.13)">N</text><text class="cls-7" transform="matrix(-0.99, 0.14, -0.14, -0.99, 285.21, 420.02)">S</text><circle class="cls-4" cx="254.05" cy="438.89" r="6"/></svg>