<svg id="Layer_1" data-name="Layer 1" xmlns="http://www.w3.org/2000/svg" viewBox="0 0 164.54 165.13"><defs><style>.cls-1,.cls-2{fill:#fefefe;stroke:#3f80ff;stroke-width:3px;}.cls-2{stroke-miterlimit:10;}</style></defs><circle class="cls-1" cx="82.27" cy="82.27" r="80.77"/><path class="cls-2" d="M206,382.72c2.33.61,3.41,2,2.55,4.41-1.43,4-2,8.53-6.3,10.87a3.72,3.72,0,0,0-1.69,3.43c-.26,5.48-2.94,9.76-6.47,13.67-.72.81-2,1.5-1.28,2.91.58,1.08,1.75.92,2.69.81,2.35-.28,3.64.6,4.4,2.91,1.22,3.73,4.12,5.94,7.65,7.37l26.35,10.64c1.67.68,3.54,1,5.13,2.68a74.34,74.34,0,0,1-36.51,21.22c-24,6-46.08.72-66.53-12.61-3.27-2.8-6.55-5.6-9.8-8.43a13.83,13.83,0,0,1-1.45-1.94c9.13-3.33,18-6.49,26.76-9.8,5.48-2.06,11.84-3,13.74-10.07a1.91,1.91,0,0,1,1.5-1c7.34.11,3.54-3.05,1.69-5.64-.78-1.07-2.08-2-2.29-3.21-1.4-8-7.49-13.76-10.22-21.12-.55-2.93-1.32-5.84,1.88-8,1.89-1.27,1.16-3.27.76-5-1-4.37-2.47-8.61-3.4-13a10.62,10.62,0,0,1,.93-7.72c5.12-9.06,17.3-15,27.43-13.17,7.76,1.37,14.3,5.16,20,10.47,6.78,6.29,6,13.86,3.58,21.68C206.31,377.57,204.77,379.93,206,382.72Z" transform="translate(-100.59 -302.48)"/></svg>